<svg xmlns="http://www.w3.org/2000/svg" width="256" height="256"><path fill="#1976D2" fill-opacity=".016" fill-rule="evenodd" d="M0 128.004v128.004l128.25-.254 128.25-.254.254-127.75L257.008 0H0zm.485.496c0 70.4.119 99.053.265 63.672s.146-92.98 0-128S.485 58.1.485 128.5"/><path fill="#1976D2" fill-opacity=".091" fill-rule="evenodd" d="M103.5 1.974c-25.744 5.164-47.291 16.745-66.036 35.49C19.973 54.955 9.547 73.312 3.367 97.5-.101 111.075-1 135.014 1.433 149c8.929 51.329 46.064 90.917 97.293 103.719 9.59 2.397 12.697 2.698 28.274 2.737 18.963.048 25.856-.902 40.142-5.528 44.707-14.478 79.537-53.998 86.911-98.613.619-3.748 1.536-7.596 2.037-8.551 1.279-2.44 1.194-31.058-.09-30.264-.576.356-1.001-.573-1.001-2.191-.003-5.232-4.89-23.025-8.845-32.197-17.331-40.2-51.675-67.925-94.4-76.207-12.999-2.52-35.508-2.488-48.254.069m28.684 86.588c-7.499 2.018-13.315 5.707-19.267 12.219-5.009 5.481-5.311 5.644-11.779 6.342-3.651.394-8.78 1.638-11.397 2.765-6.502 2.799-14.36 10.415-17.821 17.271l-2.874 5.692 2.727.555c6.437 1.309 20.747 2.658 34.227 3.226 21.734.915 39.611-2.797 52.906-10.986 6.843-4.215 11.731-5.591 20.971-5.905 8.201-.278 8.108.059 2.903-10.497-3.343-6.779-10.162-13.87-16.388-17.041-10.108-5.149-23.362-6.559-34.208-3.641M.402 128c0 8.525.154 12.012.341 7.75s.188-11.237 0-15.5c-.187-4.263-.341-.775-.341 7.75"/><path fill="#1976D2" fill-opacity=".154" fill-rule="evenodd" d="M109.882 1.069c-23.608 3.47-45.2 13.214-64.25 28.996-14.136 11.711-24.593 25.327-33.053 43.039C-8.143 116.486-2.89 166.898 26.323 205c5.89 7.683 16.862 19.004 17.834 18.403.376-.232 1.571.707 2.657 2.087S49.06 228 49.392 228s2.742 1.505 5.356 3.345c2.613 1.839 7.27 4.757 10.348 6.485l5.595 3.14 57.228.046 57.228.047 5.677-3.187c3.122-1.753 7.815-4.692 10.428-6.531 2.614-1.84 5.024-3.345 5.356-3.345s1.492-1.129 2.578-2.51 2.336-2.285 2.778-2.012c1.235.763 16.62-16.265 22.207-24.579 10.184-15.155 17.634-34.149 19.965-50.899.574-4.125 1.453-8.281 1.954-9.236 1.275-2.434 1.192-24.056-.09-23.264-.585.361-1-.67-1-2.483 0-1.706-.695-6.465-1.544-10.577C242.473 49.267 199.262 8.678 145.5 1.035c-8.2-1.166-27.577-1.147-35.618.034M73.609 65.093c-11.252 3.87-21.86 12.599-26.598 21.885l-2.13 4.177 2.422 3.172c6.867 8.995 15.291 15.032 23.294 16.693 5.166 1.073 9.317.524 18.903-2.501 1.1-.347-.036.476-2.523 1.829-5.684 3.091-13.052 10.899-16.295 17.269-2.309 4.536-2.909 5.005-8.444 6.605-6.99 2.019-15.124 8.701-18.46 15.165-3.225 6.248-3.617 18.403-.831 25.787 2.565 6.802 8.454 13.196 14.897 16.174 4.609 2.13 5.289 2.152 67.156 2.151l62.5-.002 6.5-3.096c7.824-3.727 13.957-9.48 17.712-16.617 2.551-4.848 2.781-6.192 2.784-16.284.004-9.847-.277-11.6-2.677-16.72-3.396-7.247-10.31-13.995-17.911-17.484-5.547-2.547-6.052-3.07-7.963-8.257-2.585-7.02-8.178-15.269-12.836-18.933-10.777-8.479-25.942-11.715-39.684-8.468-1.577.373-2.703-.459-4.7-3.477-5.972-9.025-15.288-16.016-25.58-19.197-8.641-2.67-21.561-2.614-29.536.129m26.097 39.634c-8.239 2.663-9.828 3.783-3.178 2.242 2.185-.507 5.569-.932 7.522-.945 3.346-.023 5.95-1.434 5.95-3.224 0-1.175-1.649-.867-10.294 1.927M.382 127.5c.002 6.6.164 9.17.359 5.711.196-3.459.195-8.859-.003-12S.38 120.9.382 127.5"/><path fill="#1976D2" fill-opacity=".337" fill-rule="evenodd" d="M112 1.095C51.969 8.872 3.842 59.65 1.672 117.5c-.124 3.3-.6 7.237-1.057 8.75L-.217 129h21.248c19.08 0 21.38.179 22.534 1.75.707.963.35-.95-.793-4.25-2.986-8.62-2.998-21.69-.03-31.129 4.148-13.189 15.814-25.41 29.033-30.413 11.895-4.502 27.254-3.524 39.124 2.491 5.993 3.037 16.026 12.14 18.555 16.835 1.754 3.257 2.039 3.393 5.448 2.6 1.979-.46 6.595-.847 10.259-.86 19.053-.068 35.921 12.098 41.742 30.108.991 3.064 2.175 4.124 7.581 6.786 3.524 1.735 8.753 5.5 11.618 8.368 4.244 4.246 4.699 4.521 2.449 1.481l-2.762-3.732 25.342-.268c23.837-.251 25.364-.378 25.702-2.135.213-1.111-.065-1.607-.686-1.223-1.235.763-2.263-4.139-2.078-9.909.317-9.941-3.374-25.524-9.177-38.745C222.233 25.127 167.413-6.084 112 1.095M.079 127.583c.048 1.165.285 1.402.604.605.289-.722.253-1.585-.079-1.917s-.568.258-.525 1.312"/></svg>